PathFileType	4	(X/Y/Z)	SUBJ62_3_walk_RCNL2025.trc
DataRate	CameraRate	NumFrames	NumMarkers	Units	OrigDataRate	OrigDataStartFrame	OrigNumFrames
100	100	14	25	mm	100	238	316
Frame#	Time	R_Shoulder			L_Shoulder			C7			J_Notch			R_Elbow			L_Elbow			R_Wrist			L_Wrist			R_Asis			L_Asis			Sacral			Thoracic			Sternum			R_Thigh_Lateral			R_Knee_Lateral			R_Shank_Lateral			R_Ankle_Lateral			R_Heel			R_Toe			L_Thigh_Lateral			L_Knee_Lateral			L_Shank_Lateral			L_Ankle_Lateral			L_Heel			L_Toe		
		X1	Y1	Z1	X2	Y2	Z2	X3	Y3	Z3	X4	Y4	Z4	X5	Y5	Z5	X6	Y6	Z6	X7	Y7	Z7	X8	Y8	Z8	X9	Y9	Z9	X10	Y10	Z10	X11	Y11	Z11	X12	Y12	Z12	X13	Y13	Z13	X14	Y14	Z14	X15	Y15	Z15	X16	Y16	Z16	X17	Y17	Z17	X18	Y18	Z18	X19	Y19	Z19	X20	Y20	Z20	X21	Y21	Z21	X22	Y22	Z22	X23	Y23	Z23	X24	Y24	Z24	X25	Y25	Z25
238	2.37000000	574.437927	1262.673828	269.582672	559.552734	1281.525024	-72.450226	492.839905	1336.042236	98.541534	626.599915	1250.224731	91.288834	454.579651	983.247192	322.398346	639.786743	996.946106	-149.175949	466.947281	761.316284	320.539719	808.520050	856.851624	-121.102219	633.270081	859.141357	232.628693	636.953125	851.574158	-27.209614	455.900787	854.898987	106.131042	432.461121	1138.586670	93.078308	647.528992	1051.313110	92.273033	686.967346	476.485626	306.237305	722.896912	432.600525	234.773148	776.729187	267.589203	276.844208	833.111145	78.056030	210.787842	788.017395	44.025566	167.204361	937.288757	94.302444	197.739822	469.890472	476.550201	-61.400749	441.505371	419.989777	-6.612128	396.918945	227.347198	-30.919092	339.049805	71.976326	41.894493	279.512848	87.864998	82.162956	439.562958	39.915119	56.894005
239	2.38000000	585.617615	1262.197388	270.624176	569.784546	1280.670776	-71.550117	503.514069	1335.178833	99.597885	637.518433	1249.735352	92.118057	464.935638	982.991211	323.158203	651.730713	996.522278	-147.851913	476.311462	760.879913	320.252426	821.758850	858.034637	-119.743484	645.830994	857.997559	233.178833	648.388245	850.882080	-26.828123	467.944458	854.337341	107.596085	443.730591	1137.471802	94.485191	659.156738	1050.896484	93.089485	695.746216	474.422821	305.947174	732.418091	430.887695	234.521149	787.739441	266.291046	276.585938	846.549927	77.475021	210.413254	801.565186	43.395023	166.853333	950.713745	93.907310	197.162369	479.027954	476.949066	-61.052467	450.435394	420.407990	-6.263333	402.389374	228.753052	-31.111515	340.480896	74.475037	41.189392	281.186584	91.860138	81.059212	440.329071	40.075565	56.690693
240	2.39000000	596.913574	1261.853638	271.758331	580.184082	1279.995605	-70.542030	514.331177	1334.471191	100.757378	648.589294	1249.422974	93.060410	475.666962	982.755066	323.952179	663.328247	996.094543	-146.431702	486.336212	760.488800	320.117218	834.398834	858.876709	-118.439854	658.471985	857.087708	233.768967	659.995728	850.341553	-26.396915	480.140991	853.945190	108.990196	455.168304	1136.514648	95.916740	670.982788	1050.658936	93.994675	704.564026	472.820709	305.660645	741.915649	429.338501	234.301437	797.802063	264.839752	276.244873	857.800537	76.559944	209.820679	812.753052	42.790707	166.366226	962.010437	92.500282	196.450699	488.392059	477.476501	-60.610725	459.832642	420.828522	-5.880585	408.188446	230.290283	-31.331779	342.182404	77.247284	40.450859	283.197174	96.216934	79.893646	441.174347	40.213993	56.513363
241	2.40000000	608.324219	1261.637817	272.978485	590.786987	1279.505371	-69.428619	525.304565	1333.936157	102.010353	659.819397	1249.292480	94.117828	486.775696	982.532898	324.781189	674.591858	995.661011	-144.932480	497.045731	760.145996	320.174286	846.442566	859.357483	-117.199818	671.173035	856.446777	234.407990	671.814270	849.954285	-25.891649	492.474060	853.722534	110.296288	466.769897	1135.738892	97.353691	682.995483	1050.605347	94.987915	713.489441	471.668365	305.422852	751.433899	427.989319	234.138016	807.027527	263.289215	275.841187	867.059509	75.343491	209.047577	821.774109	42.225536	165.783752	971.363647	90.152817	195.614838	498.046967	478.105865	-60.065193	469.764496	421.230194	-5.469509	414.318207	231.963806	-31.573465	344.208344	80.314194	39.706863	285.633026	100.960678	78.711128	442.072601	40.308800	56.381859
242	2.41000000	619.843506	1261.548218	274.274933	601.624146	1279.208252	-68.216782	536.443420	1333.592407	103.343758	671.210571	1249.349365	95.288795	498.267487	982.320679	325.646301	685.538635	995.228638	-143.372910	508.460358	759.855560	320.454651	857.890045	859.462524	-116.029476	683.909546	856.105530	235.104294	683.863403	849.725891	-25.290752	504.920319	853.669922	111.503334	478.524750	1135.170410	98.776894	695.173523	1050.739624	96.066399	722.612183	470.945862	305.284607	761.025696	426.882996	234.058655	815.535889	261.717163	275.410706	874.563782	73.900719	208.155304	828.871399	41.737881	165.162140	978.990906	86.999123	194.681290	508.101135	478.790497	-59.414761	480.323029	421.582855	-5.041594	420.799835	233.775024	-31.832239	346.622040	83.693756	38.985603	288.597961	106.117744	77.562782	442.995514	40.339863	56.314671
243	2.42000000	631.460510	1261.586426	275.635101	612.719849	1279.114990	-66.917450	547.750854	1333.458984	104.741310	682.758728	1249.599487	96.567802	510.151428	982.117249	326.548279	696.187500	994.814575	-141.772156	520.593796	759.622253	320.975235	868.737244	859.184937	-114.932487	696.652405	856.090637	235.864624	696.138000	849.667603	-24.577276	517.450439	853.789062	112.606857	490.416229	1134.835571	100.167877	707.486694	1051.064697	97.224922	732.041199	470.639984	305.298096	770.748047	426.066040	234.093643	823.456177	260.215363	275.002350	880.574402	72.334358	207.220062	834.321411	41.377693	164.565475	985.129700	83.222923	193.688324	518.699341	479.467834	-58.670750	491.617126	421.849731	-4.615380	427.680023	235.720306	-32.107544	349.497040	87.400284	38.312817	292.209320	111.713806	76.502502	443.917389	40.291973	56.327103
244	2.43000000	643.160095	1261.759033	277.043304	624.090027	1279.239258	-65.544991	559.223022	1333.552368	106.183975	694.453552	1250.047119	97.944969	522.438416	981.925598	327.487091	706.557312	994.445496	-140.149231	533.451508	759.451508	321.736313	878.975769	858.526489	-113.910275	709.369019	856.423523	236.693756	708.606628	849.795837	-23.739759	530.030762	854.081299	113.609009	502.422516	1134.756836	101.509773	719.897766	1051.581177	98.455750	741.893127	470.751251	305.510895	780.653442	425.581940	234.272736	830.925842	258.876221	274.671814	885.357178	70.757019	206.320923	838.414185	41.191868	164.056030	990.021423	79.039139	192.680099	530.008789	480.065552	-57.858727	503.761749	421.990753	-4.216653	435.036835	237.788300	-32.402733	352.917084	91.443535	37.708935	296.593536	117.770523	75.581749	444.820740	40.158672	56.429276
245	2.44000000	654.924194	1262.075439	278.481354	635.739807	1279.596069	-64.116066	570.848083	1333.882080	107.650803	706.278442	1250.693237	99.405960	535.138916	981.752441	328.461945	716.665833	994.155029	-138.522598	547.031128	759.349365	322.722061	888.594055	857.497925	-112.962669	722.025452	857.118408	237.594772	721.213440	850.130127	-22.772444	542.625793	854.545959	114.518196	514.518066	1134.948364	102.788582	732.365540	1052.286255	99.748718	752.273315	471.289612	305.959290	790.778931	425.461212	234.620468	838.088074	257.778198	274.472198	889.164062	69.273239	205.527313	841.432983	41.211670	163.684784	993.896118	74.672409	191.700104	542.202026	480.509338	-57.018364	516.865173	421.966309	-3.877069	442.982391	239.957581	-32.723682	356.974640	95.827347	37.186367	301.880585	124.300430	74.843246	445.703613	39.946541	56.623650
246	2.45000000	666.733582	1262.546509	279.929169	647.661743	1280.197266	-62.648251	582.605896	1334.447144	109.120354	718.211060	1251.532593	100.932205	548.259338	981.606750	329.471710	726.528931	993.978943	-136.910172	561.323944	759.323029	323.904434	897.579712	856.118317	-112.088657	734.588562	858.178162	238.569717	733.884155	850.689575	-21.675318	555.201111	855.177002	115.348328	526.674866	1135.411865	103.994774	744.848267	1053.171265	101.091499	763.254517	472.261322	306.661896	801.134949	425.710114	235.150787	845.083435	256.971863	274.443359	892.217651	67.965157	204.889008	843.636230	41.444916	163.483948	996.959167	70.335609	190.784821	555.438110	480.730225	-56.200912	531.016296	421.741119	-3.630945	451.658722	242.196381	-33.076557	361.767700	100.548187	36.747231	308.197052	131.300659	74.314690	446.587952	39.679710	56.901951
247	2.46000000	678.570312	1263.180176	281.365906	659.833374	1281.047974	-61.158718	594.468994	1335.233154	110.572617	730.224426	1252.551270	102.501411	561.799561	981.497742	330.515625	736.161011	993.949829	-135.329285	576.317352	759.379974	325.248978	905.922852	854.413422	-111.287220	747.028625	859.589233	239.620270	746.534180	851.486450	-20.454266	567.725525	855.960449	116.117599	538.864197	1136.133789	105.124832	757.307007	1054.220703	102.469879	774.856750	473.652252	307.615387	811.695557	426.301605	235.862503	852.036133	256.470062	274.601929	894.702332	66.884315	204.430420	845.244873	41.874279	163.462891	999.384338	66.211472	189.958633	569.844482	480.671753	-55.464165	546.273315	421.287903	-3.510376	461.225281	244.465668	-33.465721	367.395355	105.594330	36.381905	315.658569	138.746689	74.003906	447.528564	39.404152	57.241676
248	2.47000000	690.419312	1263.977905	282.771393	672.216064	1282.141235	-59.663315	606.404297	1336.211304	111.990952	742.288330	1253.726074	104.088333	575.750244	981.432007	331.594299	745.575439	994.090820	-133.796783	591.996582	759.527100	326.720734	913.620026	852.413361	-110.558075	759.321594	861.317505	240.747772	759.079102	852.520325	-19.121328	580.172546	856.872559	116.846947	551.057800	1137.084595	106.182129	769.708374	1055.410400	103.867966	787.033691	475.414307	308.793060	822.392517	427.171906	236.736679	859.036316	256.245361	274.935608	896.761597	66.050575	204.150253	846.436523	42.461258	163.608322	1001.311707	62.440079	189.230713	585.501770	480.295441	-54.865299	562.655457	420.590607	-3.539480	471.838196	246.725937	-33.892612	373.951965	110.946297	36.069168	324.361694	146.588654	73.897209	448.622528	39.190826	57.602901
249	2.48000000	702.270081	1264.931030	284.127197	684.755432	1283.455322	-58.176441	618.376343	1337.341187	113.363647	754.371155	1255.024170	105.665924	590.092285	981.410828	332.710602	754.784607	994.410767	-132.328690	608.345215	759.768829	328.288803	920.676758	850.150452	-109.902054	771.449768	863.305664	241.952744	771.445129	853.772644	-17.694822	592.520508	857.880249	117.558365	563.228638	1138.221680	107.176643	782.026001	1056.708374	105.268379	799.664856	477.459717	310.146912	833.115295	428.225586	237.736862	866.124023	256.236176	275.403076	898.501160	65.456772	204.025574	847.344788	43.153912	163.888062	1002.850586	59.113552	188.595001	602.433167	479.584900	-54.452572	580.139221	419.647705	-3.729033	483.625763	248.946320	-34.355816	381.521210	116.578537	35.778461	334.374390	154.751709	73.961693	450.016571	39.136421	57.926384
250	2.49000000	714.117310	1266.018677	285.417572	697.383789	1284.952881	-56.711742	630.350952	1338.575317	114.684334	766.441711	1256.405762	107.206718	604.798096	981.428711	333.869965	763.799927	994.901733	-130.939835	625.344513	760.105194	329.928864	927.109497	847.657043	-109.321102	783.402222	865.474426	243.233627	783.578308	855.204224	-16.199087	604.751648	858.943359	118.273102	575.351562	1139.494507	108.123451	794.240234	1058.076782	106.652412	812.556519	479.665680	311.612518	843.717834	429.349213	238.812302	873.280151	256.360077	275.941284	899.994873	65.076424	204.018921	848.063904	43.895832	164.257462	1004.084045	56.277386	188.033478	620.598389	478.548981	-54.257240	598.659485	418.475128	-4.072931	496.666138	251.113312	-34.851799	390.170441	122.461830	35.474384	345.726898	163.140732	74.151619	451.911560	39.360027	58.134377
251	2.50000000	725.960266	1267.208618	286.629639	710.025818	1286.583252	-55.283276	642.298218	1339.866455	115.951317	778.471313	1257.827759	108.684471	619.833557	981.473389	335.079834	772.631287	995.538940	-129.642944	642.972412	760.530823	331.623428	932.945282	844.964294	-108.817944	795.174194	867.728149	244.585175	795.450439	856.756836	-14.663607	616.850708	860.019348	119.010139	587.403564	1140.851196	109.040276	806.336731	1059.474854	108.000458	825.452820	481.888458	313.116333	854.032837	430.429535	239.903931	880.428772	256.531097	276.477631	901.291016	64.871994	204.086075	848.655151	44.634304	164.666840	1005.074463	53.936806	187.522156	639.893555	477.223602	-54.287441	618.115723	417.109039	-4.547574	510.973572	253.237732	-35.375237	399.947540	128.564789	35.122814	358.405457	171.646927	74.417473	454.561676	39.994427	58.135105
